<?xml version="1.0" standalone="no"?>
<!DOCTYPE svg PUBLIC "-//W3C//DTD SVG 20010904//EN"
 "http://www.w3.org/TR/2001/REC-SVG-20010904/DTD/svg10.dtd">
<svg version="1.0" xmlns="http://www.w3.org/2000/svg"
 width="512.000000pt" height="512.000000pt" viewBox="0 0 512.000000 512.000000"
 preserveAspectRatio="xMidYMid meet">

<g transform="translate(0.000000,512.000000) scale(0.100000,-0.100000)"
fill="#000000" stroke="none">
<path d="M435 4413 c-111 -58 -146 -180 -78 -276 15 -22 48 -51 72 -64 l44
-23 2098 0 c1458 0 2106 3 2126 11 70 26 116 98 116 179 0 81 -46 153 -116
179 -20 8 -668 11 -2130 11 -1895 -1 -2105 -2 -2132 -17z"/>
<path d="M435 2733 c-100 -52 -141 -161 -96 -258 22 -48 44 -69 94 -90 32 -13
269 -15 2136 -15 1459 0 2108 3 2128 11 70 26 116 98 116 179 0 81 -46 153
-116 179 -20 8 -668 11 -2130 11 -1897 -1 -2105 -2 -2132 -17z"/>
<path d="M435 1053 c-100 -52 -141 -161 -96 -258 22 -48 44 -69 94 -90 32 -13
269 -15 2136 -15 1459 0 2108 3 2128 11 70 26 116 98 116 179 0 81 -46 153
-116 179 -20 8 -668 11 -2130 11 -1897 -1 -2105 -2 -2132 -17z"/>
</g>
</svg>
